<?xml version="1.0" encoding="UTF-8"?>
<!DOCTYPE svg PUBLIC "-//W3C//DTD SVG 1.1//EN" "http://www.w3.org/Graphics/SVG/1.1/DTD/svg11.dtd">
<!-- Creator: CorelDRAW X6 -->
<svg xmlns="http://www.w3.org/2000/svg" xml:space="preserve" width="76.2422mm" height="43.5757mm" version="1.1" style="shape-rendering:geometricPrecision; text-rendering:geometricPrecision; image-rendering:optimizeQuality; fill-rule:evenodd; clip-rule:evenodd"
viewBox="0 0 7079 4046"
 xmlns:xlink="http://www.w3.org/1999/xlink">
 <defs>
  <style type="text/css">
   <![CDATA[
    .fil1 {fill:#E94F25}
    .fil0 {fill:#0D237D;fill-rule:nonzero}
   ]]>
  </style>
 </defs>
 <g id="Layer_x0020_1">
  <metadata id="CorelCorpID_0Corel-Layer"/>
  <g id="_723034240">
   <path class="fil0" d="M311 1285l1279 0 0 1879c0,293 -115,514 -278,662 -162,147 -372,221 -560,221 -192,-1 -376,-67 -516,-175 -140,-108 -223,-241 -237,-422l234 0c203,0 312,-73 312,-286l0 -1660 -235 0 0 -219z"/>
   <path class="fil0" d="M1803 3460l0 -2175 972 0 0 339c86,-129 191,-227 313,-292 123,-66 264,-98 422,-98 147,0 274,31 380,93 106,62 207,162 303,302 75,-128 175,-226 299,-294 124,-67 266,-101 425,-101 246,0 426,71 542,212 116,141 173,360 173,656l0 1360 -1027 0 0 -1347c0,-87 -15,-151 -45,-191 -30,-40 -79,-60 -145,-60 -59,0 -105,21 -138,62 -32,42 -48,100 -48,177l0 1360 -1027 0 0 -1347c0,-87 -15,-151 -45,-191 -30,-40 -79,-60 -145,-60 -58,0 -104,22 -139,66 -35,43 -52,103 -52,178l0 1355 -1018 0z"/>
   <polygon class="fil0" points="5800,3460 5800,1504 5565,1504 5565,1285 6844,1285 6844,3240 7079,3240 7079,3460 "/>
   <path class="fil1" d="M1068 0c325,0 589,263 589,588 0,100 -25,194 -69,276 -83,24 -176,4 -242,-60 -2,-2 -4,-4 -7,-6 -25,-20 -62,-19 -85,4 -23,23 -25,61 -4,86 4,5 10,10 14,14 64,59 143,92 224,98 -107,109 -256,177 -421,177 -325,0 -589,-263 -589,-589 0,-325 263,-588 589,-588z"/>
   <path class="fil1" d="M6322 0c325,0 589,263 589,588 0,325 -264,589 -589,589 -164,0 -313,-67 -420,-176 89,-1 178,-34 249,-99 5,-5 10,-9 14,-14 21,-25 20,-62 -4,-86 -23,-23 -60,-25 -85,-4 -2,2 -4,4 -7,6 -75,73 -184,89 -274,48 -40,-79 -62,-169 -62,-264 0,-325 263,-588 589,-588z"/>
  </g>
 </g>
</svg>
