<?xml version="1.0" encoding="UTF-8"?>
<!DOCTYPE svg PUBLIC "-//W3C//DTD SVG 1.1//EN" "http://www.w3.org/Graphics/SVG/1.1/DTD/svg11.dtd">
<svg xmlns="http://www.w3.org/2000/svg" version="1.1" width="1536px" height="1024px" style="shape-rendering:geometricPrecision; text-rendering:geometricPrecision; image-rendering:optimizeQuality; fill-rule:evenodd; clip-rule:evenodd" xmlns:xlink="http://www.w3.org/1999/xlink">
<g><path style="opacity:1" fill="#fdfdfd" d="M -0.5,-0.5 C 511.5,-0.5 1023.5,-0.5 1535.5,-0.5C 1535.5,340.833 1535.5,682.167 1535.5,1023.5C 1023.5,1023.5 511.5,1023.5 -0.5,1023.5C -0.5,682.167 -0.5,340.833 -0.5,-0.5 Z"/></g>
<g><path style="opacity:1" fill="#7e8eb3" d="M 689.5,437.5 C 689.5,437.167 689.5,436.833 689.5,436.5C 689.5,427.5 689.5,418.5 689.5,409.5C 646.5,409.5 603.5,409.5 560.5,409.5C 560.5,455.5 560.5,501.5 560.5,547.5C 560.5,547.833 560.5,548.167 560.5,548.5C 559.501,502.003 559.168,455.336 559.5,408.5C 603.167,408.5 646.833,408.5 690.5,408.5C 690.827,418.348 690.494,428.014 689.5,437.5 Z"/></g>
<g><path style="opacity:1" fill="#0b2f70" d="M 497.5,409.5 C 524.795,412.963 538.462,428.463 538.5,456C 538.258,482.909 524.925,498.909 498.5,504C 513.14,518.64 527.806,533.306 542.5,548C 526.5,548.667 510.5,548.667 494.5,548C 474.935,527.938 455.602,507.771 436.5,487.5C 436.5,484.5 436.5,481.5 436.5,478.5C 451.676,478.829 466.676,478.496 481.5,477.5C 493.783,476.551 500.449,469.884 501.5,457.5C 501.408,447.121 496.408,440.621 486.5,438C 465.169,437.5 443.836,437.333 422.5,437.5C 422.5,473.833 422.5,510.167 422.5,546.5C 410.833,546.5 399.167,546.5 387.5,546.5C 387.5,501.167 387.5,455.833 387.5,410.5C 424.337,410.832 461.004,410.498 497.5,409.5 Z"/></g>
<g><path style="opacity:1" fill="#092d6e" d="M 689.5,436.5 C 689.5,436.833 689.5,437.167 689.5,437.5C 658.833,437.5 628.167,437.5 597.5,437.5C 596.505,448.321 596.172,459.321 596.5,470.5C 624.5,470.5 652.5,470.5 680.5,470.5C 680.5,479.5 680.5,488.5 680.5,497.5C 652.328,497.169 624.328,497.502 596.5,498.5C 595.504,514.325 595.17,530.325 595.5,546.5C 584.167,546.5 572.833,546.5 561.5,546.5C 561.5,501.167 561.5,455.833 561.5,410.5C 603.833,410.5 646.167,410.5 688.5,410.5C 688.5,418.833 688.5,427.167 688.5,435.5C 657.832,435.333 627.165,435.5 596.5,436C 627.498,436.5 658.498,436.667 689.5,436.5 Z"/></g>
<g><path style="opacity:1" fill="#0a2e6e" d="M 933.5,409.5 C 947.85,431.014 961.85,452.847 975.5,475C 969.377,486.082 962.877,496.915 956,507.5C 944.607,491.104 933.607,474.438 923,457.5C 922.5,487.832 922.333,518.165 922.5,548.5C 910.12,549.146 898.12,548.479 886.5,546.5C 887.499,501.003 887.832,455.336 887.5,409.5C 902.833,409.5 918.167,409.5 933.5,409.5 Z"/></g>
<g><path style="opacity:1" fill="#f15808" d="M 1028.5,409.5 C 1044.17,409.5 1059.83,409.5 1075.5,409.5C 1075.5,455.5 1075.5,501.5 1075.5,547.5C 1064.17,547.5 1052.83,547.5 1041.5,547.5C 1041.83,517.159 1041.5,486.826 1040.5,456.5C 1039.89,456.624 1039.56,456.957 1039.5,457.5C 1022.42,487.761 1005.09,517.928 987.5,548C 985.741,548.798 984.074,548.631 982.5,547.5C 977.196,539.031 971.696,530.698 966,522.5C 965.333,520.833 965.333,519.167 966,517.5C 986.608,481.274 1007.44,445.274 1028.5,409.5 Z"/></g>
<g><path style="opacity:1" fill="#092e6f" d="M 860.5,409.5 C 860.5,455.5 860.5,501.5 860.5,547.5C 848.5,547.5 836.5,547.5 824.5,547.5C 824.83,528.992 824.497,510.659 823.5,492.5C 798.167,492.5 772.833,492.5 747.5,492.5C 747.167,492.5 746.833,492.5 746.5,492.5C 745.503,510.326 745.17,528.326 745.5,546.5C 734.5,546.5 723.5,546.5 712.5,546.5C 712.5,501.167 712.5,455.833 712.5,410.5C 723.5,410.5 734.5,410.5 745.5,410.5C 745.17,428.341 745.503,446.008 746.5,463.5C 746.833,463.5 747.167,463.5 747.5,463.5C 773.167,463.5 798.833,463.5 824.5,463.5C 824.5,445.5 824.5,427.5 824.5,409.5C 836.5,409.5 848.5,409.5 860.5,409.5 Z"/></g>
<g><path style="opacity:1" fill="#032162" d="M 746.5,463.5 C 745.503,446.008 745.17,428.341 745.5,410.5C 734.5,410.5 723.5,410.5 712.5,410.5C 712.5,455.833 712.5,501.167 712.5,546.5C 723.5,546.5 734.5,546.5 745.5,546.5C 745.17,528.326 745.503,510.326 746.5,492.5C 746.5,510.833 746.5,529.167 746.5,547.5C 734.833,547.5 723.167,547.5 711.5,547.5C 711.5,501.5 711.5,455.5 711.5,409.5C 723.167,409.5 734.833,409.5 746.5,409.5C 746.5,427.5 746.5,445.5 746.5,463.5 Z"/></g>
<g><path style="opacity:1" fill="#8596ba" d="M 860.5,409.5 C 848.5,409.5 836.5,409.5 824.5,409.5C 824.5,427.5 824.5,445.5 824.5,463.5C 798.833,463.5 773.167,463.5 747.5,463.5C 747.5,463.167 747.5,462.833 747.5,462.5C 772.833,462.5 798.167,462.5 823.5,462.5C 823.5,444.5 823.5,426.5 823.5,408.5C 836.011,408.171 848.345,408.505 860.5,409.5 Z"/></g>
<g><path style="opacity:1" fill="#4e6793" d="M 747.5,462.5 C 747.5,462.833 747.5,463.167 747.5,463.5C 747.167,463.5 746.833,463.5 746.5,463.5C 746.5,445.5 746.5,427.5 746.5,409.5C 734.833,409.5 723.167,409.5 711.5,409.5C 711.5,455.5 711.5,501.5 711.5,547.5C 723.167,547.5 734.833,547.5 746.5,547.5C 746.5,529.167 746.5,510.833 746.5,492.5C 746.833,492.5 747.167,492.5 747.5,492.5C 747.5,511.167 747.5,529.833 747.5,548.5C 735.167,548.5 722.833,548.5 710.5,548.5C 710.5,501.833 710.5,455.167 710.5,408.5C 722.833,408.5 735.167,408.5 747.5,408.5C 747.5,426.5 747.5,444.5 747.5,462.5 Z"/></g>
<g><path style="opacity:1" fill="#021f62" d="M 689.5,436.5 C 658.498,436.667 627.498,436.5 596.5,436C 627.165,435.5 657.832,435.333 688.5,435.5C 688.5,427.167 688.5,418.833 688.5,410.5C 646.167,410.5 603.833,410.5 561.5,410.5C 561.5,455.833 561.5,501.167 561.5,546.5C 572.833,546.5 584.167,546.5 595.5,546.5C 595.17,530.325 595.504,514.325 596.5,498.5C 596.5,514.833 596.5,531.167 596.5,547.5C 584.5,547.5 572.5,547.5 560.5,547.5C 560.5,501.5 560.5,455.5 560.5,409.5C 603.5,409.5 646.5,409.5 689.5,409.5C 689.5,418.5 689.5,427.5 689.5,436.5 Z"/></g>
<g><path style="opacity:1" fill="#687eaa" d="M 494.5,409.5 C 458.5,409.5 422.5,409.5 386.5,409.5C 386.5,455.5 386.5,501.5 386.5,547.5C 398.5,547.5 410.5,547.5 422.5,547.5C 410.345,548.495 398.011,548.829 385.5,548.5C 385.5,501.833 385.5,455.167 385.5,408.5C 422.004,408.168 458.337,408.502 494.5,409.5 Z"/></g>
<g><path style="opacity:1" fill="#011c63" d="M 494.5,409.5 C 495.5,409.5 496.5,409.5 497.5,409.5C 461.004,410.498 424.337,410.832 387.5,410.5C 387.5,455.833 387.5,501.167 387.5,546.5C 399.167,546.5 410.833,546.5 422.5,546.5C 422.5,546.833 422.5,547.167 422.5,547.5C 410.5,547.5 398.5,547.5 386.5,547.5C 386.5,501.5 386.5,455.5 386.5,409.5C 422.5,409.5 458.5,409.5 494.5,409.5 Z"/></g>
<g><path style="opacity:1" fill="#263e71" d="M 933.5,409.5 C 918.167,409.5 902.833,409.5 887.5,409.5C 887.832,455.336 887.499,501.003 886.5,546.5C 886.5,500.5 886.5,454.5 886.5,408.5C 902.342,408.17 918.009,408.504 933.5,409.5 Z"/></g>
<g><path style="opacity:1" fill="#f28747" d="M 1028.5,409.5 C 1044.32,408.504 1060.32,408.17 1076.5,408.5C 1076.5,455.167 1076.5,501.833 1076.5,548.5C 1064.83,548.5 1053.17,548.5 1041.5,548.5C 1041.5,548.167 1041.5,547.833 1041.5,547.5C 1052.83,547.5 1064.17,547.5 1075.5,547.5C 1075.5,501.5 1075.5,455.5 1075.5,409.5C 1059.83,409.5 1044.17,409.5 1028.5,409.5 Z"/></g>
<g><path style="opacity:1" fill="#7084aa" d="M 481.5,477.5 C 466.676,478.496 451.676,478.829 436.5,478.5C 436.5,481.5 436.5,484.5 436.5,487.5C 435.521,484.375 435.187,481.042 435.5,477.5C 450.833,477.5 466.167,477.5 481.5,477.5 Z"/></g>
<g><path style="opacity:1" fill="#7085ae" d="M 597.5,437.5 C 597.5,448.167 597.5,458.833 597.5,469.5C 625.5,469.5 653.5,469.5 681.5,469.5C 681.5,479.167 681.5,488.833 681.5,498.5C 653.5,498.5 625.5,498.5 597.5,498.5C 597.5,515.167 597.5,531.833 597.5,548.5C 585.167,548.5 572.833,548.5 560.5,548.5C 560.5,548.167 560.5,547.833 560.5,547.5C 572.5,547.5 584.5,547.5 596.5,547.5C 596.5,531.167 596.5,514.833 596.5,498.5C 624.328,497.502 652.328,497.169 680.5,497.5C 680.5,488.5 680.5,479.5 680.5,470.5C 652.5,470.5 624.5,470.5 596.5,470.5C 596.172,459.321 596.505,448.321 597.5,437.5 Z"/></g>
<g><path style="opacity:1" fill="#f5b486" d="M 1039.5,457.5 C 1039.56,456.957 1039.89,456.624 1040.5,456.5C 1041.5,486.826 1041.83,517.159 1041.5,547.5C 1041.5,547.833 1041.5,548.167 1041.5,548.5C 1040.83,518.167 1040.17,487.833 1039.5,457.5 Z"/></g>
<g><path style="opacity:1" fill="#f5a470" d="M 1132.5,522.5 C 1131.51,515.352 1131.18,508.019 1131.5,500.5C 1122.17,500.5 1112.83,500.5 1103.5,500.5C 1103.82,508.019 1103.49,515.352 1102.5,522.5C 1102.5,514.833 1102.5,507.167 1102.5,499.5C 1112.5,499.5 1122.5,499.5 1132.5,499.5C 1132.5,507.167 1132.5,514.833 1132.5,522.5 Z"/></g>
<g><path style="opacity:1" fill="#f05507" d="M 1132.5,522.5 C 1140.17,522.5 1147.83,522.5 1155.5,522.5C 1155.5,532.167 1155.5,541.833 1155.5,551.5C 1147.83,551.5 1140.17,551.5 1132.5,551.5C 1131.51,558.648 1131.18,565.981 1131.5,573.5C 1122.17,573.5 1112.83,573.5 1103.5,573.5C 1103.82,565.981 1103.49,558.648 1102.5,551.5C 1095.5,551.5 1088.5,551.5 1081.5,551.5C 1081.5,541.833 1081.5,532.167 1081.5,522.5C 1088.5,522.5 1095.5,522.5 1102.5,522.5C 1103.49,515.352 1103.82,508.019 1103.5,500.5C 1112.83,500.5 1122.17,500.5 1131.5,500.5C 1131.18,508.019 1131.51,515.352 1132.5,522.5 Z"/></g>
<g><path style="opacity:1" fill="#f15b14" d="M 792.5,571.5 C 798.833,570.833 805.167,570.167 811.5,569.5C 869.484,567.658 927.484,566.824 985.5,567C 988.042,571.251 990.709,575.418 993.5,579.5C 999.72,562.727 1006.22,546.06 1013,529.5C 1017.34,527.438 1020,528.771 1021,533.5C 1026.01,555.207 1031.18,576.873 1036.5,598.5C 1040.64,588.415 1043.97,578.082 1046.5,567.5C 1058.17,567.333 1069.84,567.5 1081.5,568C 1083.71,568.17 1085.71,568.837 1087.5,570C 1084.04,571.786 1080.38,573.119 1076.5,574C 1068.83,574.333 1061.17,574.667 1053.5,575C 1048.62,587.346 1044.12,599.846 1040,612.5C 1035.59,615.752 1032.59,614.752 1031,609.5C 1026.15,587.423 1020.99,565.423 1015.5,543.5C 1009.12,558.94 1003.28,574.606 998,590.5C 995.541,593.1 993.041,593.1 990.5,590.5C 987.626,585.251 984.626,580.085 981.5,575C 918.504,573.534 855.504,572.367 792.5,571.5 Z"/></g>
<g><path style="opacity:1" fill="#6d81ab" d="M 823.5,492.5 C 824.497,510.659 824.83,528.992 824.5,547.5C 836.5,547.5 848.5,547.5 860.5,547.5C 848.345,548.495 836.011,548.829 823.5,548.5C 823.5,529.833 823.5,511.167 823.5,492.5 Z"/></g>
<g><path style="opacity:1" fill="#f8af8e" d="M 789.5,569.5 C 784.167,570.167 778.833,570.833 773.5,571.5C 772.957,571.44 772.624,571.107 772.5,570.5C 778.128,569.505 783.794,569.171 789.5,569.5 Z"/></g>
<g><path style="opacity:1" fill="#f56e36" d="M 789.5,569.5 C 796.833,569.5 804.167,569.5 811.5,569.5C 805.167,570.167 798.833,570.833 792.5,571.5C 786.167,571.5 779.833,571.5 773.5,571.5C 778.833,570.833 784.167,570.167 789.5,569.5 Z"/></g>
<g><path style="opacity:1" fill="#f5995f" d="M 1102.5,551.5 C 1103.49,558.648 1103.82,565.981 1103.5,573.5C 1112.83,573.5 1122.17,573.5 1131.5,573.5C 1131.18,565.981 1131.51,558.648 1132.5,551.5C 1132.5,559.167 1132.5,566.833 1132.5,574.5C 1122.5,574.5 1112.5,574.5 1102.5,574.5C 1102.5,566.833 1102.5,559.167 1102.5,551.5 Z"/></g>
</svg>
