<?xml version="1.0" encoding="UTF-8"?>
<!DOCTYPE svg PUBLIC "-//W3C//DTD SVG 1.1//EN" "http://www.w3.org/Graphics/SVG/1.1/DTD/svg11.dtd">
<svg xmlns="http://www.w3.org/2000/svg" version="1.1" width="823px" height="262px" style="shape-rendering:geometricPrecision; text-rendering:geometricPrecision; image-rendering:optimizeQuality; fill-rule:evenodd; clip-rule:evenodd" xmlns:xlink="http://www.w3.org/1999/xlink">
<g><path style="opacity:1" fill="#fdfdfd" d="M -0.5,-0.5 C 273.833,-0.5 548.167,-0.5 822.5,-0.5C 822.5,86.8333 822.5,174.167 822.5,261.5C 548.167,261.5 273.833,261.5 -0.5,261.5C -0.5,174.167 -0.5,86.8333 -0.5,-0.5 Z"/></g>
<g><path style="opacity:1" fill="#697faa" d="M 142.5,34.5 C 106.5,34.5 70.5,34.5 34.5,34.5C 34.5,80.5 34.5,126.5 34.5,172.5C 46.5,172.5 58.5,172.5 70.5,172.5C 58.3446,173.495 46.0113,173.829 33.5,173.5C 33.5,126.833 33.5,80.1667 33.5,33.5C 70.0038,33.1682 106.337,33.5016 142.5,34.5 Z"/></g>
<g><path style="opacity:1" fill="#7f8fb3" d="M 337.5,62.5 C 337.5,62.1667 337.5,61.8333 337.5,61.5C 337.5,52.5 337.5,43.5 337.5,34.5C 294.5,34.5 251.5,34.5 208.5,34.5C 208.5,80.5 208.5,126.5 208.5,172.5C 208.5,172.833 208.5,173.167 208.5,173.5C 207.501,127.003 207.168,80.3363 207.5,33.5C 251.167,33.5 294.833,33.5 338.5,33.5C 338.827,43.3478 338.494,53.0144 337.5,62.5 Z"/></g>
<g><path style="opacity:1" fill="#092d6e" d="M 38.5,35.5 C 69.9974,36.3324 101.664,36.8324 133.5,37C 137.14,38.1339 136.807,39.1339 132.5,40C 134.189,43.2652 135.189,46.7652 135.5,50.5C 135.61,52.374 134.944,53.874 133.5,55C 137.441,57.6074 137.441,60.1074 133.5,62.5C 112.5,62.5 91.5,62.5 70.5,62.5C 70.5,98.8333 70.5,135.167 70.5,171.5C 58.8333,171.5 47.1667,171.5 35.5,171.5C 35.5,126.167 35.5,80.8333 35.5,35.5C 36.5,35.5 37.5,35.5 38.5,35.5 Z"/></g>
<g><path style="opacity:1" fill="#092d6e" d="M 337.5,61.5 C 337.5,61.8333 337.5,62.1667 337.5,62.5C 306.833,62.5 276.167,62.5 245.5,62.5C 244.505,73.3206 244.172,84.3206 244.5,95.5C 272.5,95.5 300.5,95.5 328.5,95.5C 328.5,104.5 328.5,113.5 328.5,122.5C 300.328,122.169 272.328,122.502 244.5,123.5C 243.504,139.325 243.17,155.325 243.5,171.5C 232.167,171.5 220.833,171.5 209.5,171.5C 209.5,126.167 209.5,80.8333 209.5,35.5C 251.833,35.5 294.167,35.5 336.5,35.5C 336.5,43.8333 336.5,52.1667 336.5,60.5C 305.832,60.3334 275.165,60.5 244.5,61C 275.498,61.5 306.498,61.6666 337.5,61.5 Z"/></g>
<g><path style="opacity:1" fill="#0a2e6e" d="M 581.5,34.5 C 595.85,56.0141 609.85,77.8474 623.5,100C 617.377,111.082 610.877,121.915 604,132.5C 592.607,116.104 581.607,99.4377 571,82.5C 570.5,112.832 570.333,143.165 570.5,173.5C 558.12,174.146 546.12,173.479 534.5,171.5C 535.499,126.003 535.832,80.3364 535.5,34.5C 550.833,34.5 566.167,34.5 581.5,34.5 Z"/></g>
<g><path style="opacity:1" fill="#f15808" d="M 676.5,34.5 C 692.167,34.5 707.833,34.5 723.5,34.5C 723.5,80.5 723.5,126.5 723.5,172.5C 712.167,172.5 700.833,172.5 689.5,172.5C 689.833,142.159 689.5,111.826 688.5,81.5C 687.893,81.6236 687.56,81.9569 687.5,82.5C 670.422,112.761 653.089,142.928 635.5,173C 633.741,173.798 632.074,173.631 630.5,172.5C 625.196,164.031 619.696,155.698 614,147.5C 613.333,145.833 613.333,144.167 614,142.5C 634.608,106.274 655.441,70.2736 676.5,34.5 Z"/></g>
<g><path style="opacity:1" fill="#092e6f" d="M 508.5,34.5 C 508.5,80.5 508.5,126.5 508.5,172.5C 496.5,172.5 484.5,172.5 472.5,172.5C 472.83,153.992 472.497,135.659 471.5,117.5C 446.167,117.5 420.833,117.5 395.5,117.5C 395.167,117.5 394.833,117.5 394.5,117.5C 393.503,135.326 393.17,153.326 393.5,171.5C 382.5,171.5 371.5,171.5 360.5,171.5C 360.5,126.167 360.5,80.8333 360.5,35.5C 371.5,35.5 382.5,35.5 393.5,35.5C 393.17,53.3412 393.503,71.0079 394.5,88.5C 394.833,88.5 395.167,88.5 395.5,88.5C 421.167,88.5 446.833,88.5 472.5,88.5C 472.5,70.5 472.5,52.5 472.5,34.5C 484.5,34.5 496.5,34.5 508.5,34.5 Z"/></g>
<g><path style="opacity:1" fill="#8596ba" d="M 508.5,34.5 C 496.5,34.5 484.5,34.5 472.5,34.5C 472.5,52.5 472.5,70.5 472.5,88.5C 446.833,88.5 421.167,88.5 395.5,88.5C 395.5,88.1667 395.5,87.8333 395.5,87.5C 420.833,87.5 446.167,87.5 471.5,87.5C 471.5,69.5 471.5,51.5 471.5,33.5C 484.011,33.1714 496.345,33.5048 508.5,34.5 Z"/></g>
<g><path style="opacity:1" fill="#0d2f70" d="M 145.5,34.5 C 172.795,37.9627 186.462,53.4627 186.5,81C 186.258,107.909 172.925,123.909 146.5,129C 161.14,143.64 175.806,158.306 190.5,173C 174.5,173.667 158.5,173.667 142.5,173C 122.935,152.938 103.602,132.771 84.5,112.5C 84.5,109.5 84.5,106.5 84.5,103.5C 99.676,103.829 114.676,103.496 129.5,102.5C 141.783,101.551 148.449,94.8841 149.5,82.5C 149.379,71.5641 144.046,64.8974 133.5,62.5C 137.441,60.1074 137.441,57.6074 133.5,55C 134.944,53.874 135.61,52.374 135.5,50.5C 135.189,46.7652 134.189,43.2652 132.5,40C 136.807,39.1339 137.14,38.1339 133.5,37C 101.664,36.8324 69.9974,36.3324 38.5,35.5C 74.3372,35.8317 110.004,35.4984 145.5,34.5 Z"/></g>
<g><path style="opacity:1" fill="#032161" d="M 394.5,88.5 C 393.503,71.0079 393.17,53.3412 393.5,35.5C 382.5,35.5 371.5,35.5 360.5,35.5C 360.5,80.8333 360.5,126.167 360.5,171.5C 371.5,171.5 382.5,171.5 393.5,171.5C 393.17,153.326 393.503,135.326 394.5,117.5C 394.5,135.833 394.5,154.167 394.5,172.5C 382.833,172.5 371.167,172.5 359.5,172.5C 359.5,126.5 359.5,80.5 359.5,34.5C 371.167,34.5 382.833,34.5 394.5,34.5C 394.5,52.5 394.5,70.5 394.5,88.5 Z"/></g>
<g><path style="opacity:1" fill="#4b6590" d="M 395.5,87.5 C 395.5,87.8333 395.5,88.1667 395.5,88.5C 395.167,88.5 394.833,88.5 394.5,88.5C 394.5,70.5 394.5,52.5 394.5,34.5C 382.833,34.5 371.167,34.5 359.5,34.5C 359.5,80.5 359.5,126.5 359.5,172.5C 371.167,172.5 382.833,172.5 394.5,172.5C 394.5,154.167 394.5,135.833 394.5,117.5C 394.833,117.5 395.167,117.5 395.5,117.5C 395.5,136.167 395.5,154.833 395.5,173.5C 383.167,173.5 370.833,173.5 358.5,173.5C 358.5,126.833 358.5,80.1667 358.5,33.5C 370.833,33.5 383.167,33.5 395.5,33.5C 395.5,51.5 395.5,69.5 395.5,87.5 Z"/></g>
<g><path style="opacity:1" fill="#011c63" d="M 142.5,34.5 C 143.5,34.5 144.5,34.5 145.5,34.5C 110.004,35.4984 74.3372,35.8317 38.5,35.5C 37.5,35.5 36.5,35.5 35.5,35.5C 35.5,80.8333 35.5,126.167 35.5,171.5C 47.1667,171.5 58.8333,171.5 70.5,171.5C 70.5,171.833 70.5,172.167 70.5,172.5C 58.5,172.5 46.5,172.5 34.5,172.5C 34.5,126.5 34.5,80.5 34.5,34.5C 70.5,34.5 106.5,34.5 142.5,34.5 Z"/></g>
<g><path style="opacity:1" fill="#778bb1" d="M 245.5,62.5 C 245.5,73.1667 245.5,83.8333 245.5,94.5C 273.5,94.5 301.5,94.5 329.5,94.5C 329.5,104.167 329.5,113.833 329.5,123.5C 301.5,123.5 273.5,123.5 245.5,123.5C 245.5,140.167 245.5,156.833 245.5,173.5C 233.167,173.5 220.833,173.5 208.5,173.5C 208.5,173.167 208.5,172.833 208.5,172.5C 220.5,172.5 232.5,172.5 244.5,172.5C 244.5,156.167 244.5,139.833 244.5,123.5C 272.328,122.502 300.328,122.169 328.5,122.5C 328.5,113.5 328.5,104.5 328.5,95.5C 300.5,95.5 272.5,95.5 244.5,95.5C 244.172,84.3206 244.505,73.3206 245.5,62.5 Z"/></g>
<g><path style="opacity:1" fill="#273e71" d="M 581.5,34.5 C 566.167,34.5 550.833,34.5 535.5,34.5C 535.832,80.3364 535.499,126.003 534.5,171.5C 534.5,125.5 534.5,79.5 534.5,33.5C 550.342,33.1704 566.009,33.5037 581.5,34.5 Z"/></g>
<g><path style="opacity:1" fill="#f28747" d="M 676.5,34.5 C 692.325,33.5036 708.325,33.1703 724.5,33.5C 724.5,80.1667 724.5,126.833 724.5,173.5C 712.833,173.5 701.167,173.5 689.5,173.5C 689.5,173.167 689.5,172.833 689.5,172.5C 700.833,172.5 712.167,172.5 723.5,172.5C 723.5,126.5 723.5,80.5 723.5,34.5C 707.833,34.5 692.167,34.5 676.5,34.5 Z"/></g>
<g><path style="opacity:1" fill="#7084aa" d="M 129.5,102.5 C 114.676,103.496 99.676,103.829 84.5,103.5C 84.5,106.5 84.5,109.5 84.5,112.5C 83.5206,109.375 83.1872,106.042 83.5,102.5C 98.8333,102.5 114.167,102.5 129.5,102.5 Z"/></g>
<g><path style="opacity:1" fill="#f5a16c" d="M 780.5,147.5 C 779.508,140.352 779.175,133.019 779.5,125.5C 770.167,125.5 760.833,125.5 751.5,125.5C 751.825,133.019 751.492,140.352 750.5,147.5C 750.5,139.833 750.5,132.167 750.5,124.5C 760.5,124.5 770.5,124.5 780.5,124.5C 780.5,132.167 780.5,139.833 780.5,147.5 Z"/></g>
<g><path style="opacity:1" fill="#021f61" d="M 337.5,61.5 C 306.498,61.6666 275.498,61.5 244.5,61C 275.165,60.5 305.832,60.3334 336.5,60.5C 336.5,52.1667 336.5,43.8333 336.5,35.5C 294.167,35.5 251.833,35.5 209.5,35.5C 209.5,80.8333 209.5,126.167 209.5,171.5C 220.833,171.5 232.167,171.5 243.5,171.5C 243.17,155.325 243.504,139.325 244.5,123.5C 244.5,139.833 244.5,156.167 244.5,172.5C 232.5,172.5 220.5,172.5 208.5,172.5C 208.5,126.5 208.5,80.5 208.5,34.5C 251.5,34.5 294.5,34.5 337.5,34.5C 337.5,43.5 337.5,52.5 337.5,61.5 Z"/></g>
<g><path style="opacity:1" fill="#f5b587" d="M 687.5,82.5 C 687.56,81.9569 687.893,81.6236 688.5,81.5C 689.5,111.826 689.833,142.159 689.5,172.5C 689.5,172.833 689.5,173.167 689.5,173.5C 688.833,143.167 688.167,112.833 687.5,82.5 Z"/></g>
<g><path style="opacity:1" fill="#f05507" d="M 780.5,147.5 C 788.167,147.5 795.833,147.5 803.5,147.5C 803.5,157.167 803.5,166.833 803.5,176.5C 795.833,176.5 788.167,176.5 780.5,176.5C 779.508,183.648 779.175,190.981 779.5,198.5C 770.167,198.5 760.833,198.5 751.5,198.5C 751.825,190.981 751.492,183.648 750.5,176.5C 743.5,176.5 736.5,176.5 729.5,176.5C 729.5,166.833 729.5,157.167 729.5,147.5C 736.5,147.5 743.5,147.5 750.5,147.5C 751.492,140.352 751.825,133.019 751.5,125.5C 760.833,125.5 770.167,125.5 779.5,125.5C 779.175,133.019 779.508,140.352 780.5,147.5 Z"/></g>
<g><path style="opacity:1" fill="#6d81ab" d="M 471.5,117.5 C 472.497,135.659 472.83,153.992 472.5,172.5C 484.5,172.5 496.5,172.5 508.5,172.5C 496.345,173.495 484.011,173.829 471.5,173.5C 471.5,154.833 471.5,136.167 471.5,117.5 Z"/></g>
<g><path style="opacity:1" fill="#f0580f" d="M 630.5,201.5 C 632.598,199.677 632.932,197.511 631.5,195C 632.056,193.989 632.722,193.156 633.5,192.5C 636.143,196.435 638.81,200.435 641.5,204.5C 647.72,187.727 654.22,171.06 661,154.5C 665.337,152.438 668.004,153.771 669,158.5C 674.01,180.207 679.177,201.873 684.5,223.5C 688.639,213.415 691.973,203.082 694.5,192.5C 706.171,192.333 717.838,192.5 729.5,193C 731.715,193.17 733.715,193.837 735.5,195C 732.042,196.786 728.376,198.119 724.5,199C 716.833,199.333 709.167,199.667 701.5,200C 696.62,212.346 692.12,224.846 688,237.5C 683.594,240.752 680.594,239.752 679,234.5C 674.154,212.423 668.987,190.423 663.5,168.5C 657.116,183.94 651.283,199.606 646,215.5C 644.135,217.673 641.969,218.007 639.5,216.5C 636.237,211.638 633.237,206.638 630.5,201.5 Z"/></g>
<g><path style="opacity:1" fill="#f55f1b" d="M 633.5,192.5 C 632.722,193.156 632.056,193.989 631.5,195C 632.932,197.511 632.598,199.677 630.5,201.5C 630.389,200.883 630.056,200.383 629.5,200C 566.5,198.738 503.5,197.571 440.5,196.5C 446.833,195.833 453.167,195.167 459.5,194.5C 517.652,192.634 575.652,191.968 633.5,192.5 Z"/></g>
<g><path style="opacity:1" fill="#f8af8e" d="M 437.5,194.5 C 432.167,195.167 426.833,195.833 421.5,196.5C 420.957,196.44 420.624,196.107 420.5,195.5C 426.128,194.505 431.794,194.171 437.5,194.5 Z"/></g>
<g><path style="opacity:1" fill="#f56e36" d="M 437.5,194.5 C 444.833,194.5 452.167,194.5 459.5,194.5C 453.167,195.167 446.833,195.833 440.5,196.5C 434.167,196.5 427.833,196.5 421.5,196.5C 426.833,195.833 432.167,195.167 437.5,194.5 Z"/></g>
<g><path style="opacity:1" fill="#f5995f" d="M 750.5,176.5 C 751.492,183.648 751.825,190.981 751.5,198.5C 760.833,198.5 770.167,198.5 779.5,198.5C 779.175,190.981 779.508,183.648 780.5,176.5C 780.5,184.167 780.5,191.833 780.5,199.5C 770.5,199.5 760.5,199.5 750.5,199.5C 750.5,191.833 750.5,184.167 750.5,176.5 Z"/></g>
</svg>
